<svg width="512" height="512" version="1.1" xmlns="http://www.w3.org/2000/svg" desc="Created with imagetracer.js version 1.2.6" ><path fill="rgb(0,0,0)" stroke="rgb(0,0,0)" stroke-width="1" opacity="0" d="M 0 0 L 133 0.5 L 124 6.5 L 120 13.5 L 120 232 L 13.5 232 L 4 238.5 L 0.5 245 L 0 0 Z " /><path fill="rgb(0,0,0)" stroke="rgb(0,0,0)" stroke-width="1" opacity="0" d="M 379.5 0 L 512 0 L 512 164.5 L 511 164.5 L 505.5 156 L 392 80.5 L 392 13.5 L 385.5 4 L 379.5 1 L 379.5 0 Z " /><path fill="rgb(0,0,0)" stroke="rgb(0,0,0)" stroke-width="1" opacity="0" d="M 160 40 L 352 40 L 352 472 L 276 472 L 276 445.5 L 269.5 436 Q 263.9 429.6 249.5 432 L 240 438.5 L 236 445.5 L 236 472 L 160.5 472 L 160 471.5 L 160 40 Z M 250 72 L 243 76 L 200 119 L 196 126 Q 194 140 200 146 L 210 152 L 223 152 Q 231 149 236 142 L 236 219 L 240 226 L 250 232 Q 264 234 270 228 L 276 219 L 277 142 Q 281 149 290 152 Q 304 154 310 148 L 316 139 Q 318 124 312 119 L 270 76 Q 264 70 250 72 Z M 210 272 L 203 276 L 196 286 Q 194 300 200 306 L 210 312 L 303 312 L 310 308 L 316 299 Q 318 284 312 279 L 303 272 L 210 272 Z M 210 352 L 203 356 L 196 366 Q 194 380 200 386 L 210 392 L 303 392 L 310 388 L 316 379 Q 318 364 312 359 L 303 352 L 210 352 Z " /><path fill="rgb(0,0,0)" stroke="rgb(0,0,0)" stroke-width="1" opacity="0" d="M 392.5 130 L 472 183.5 L 472 232 L 445.5 232 L 436 238.5 Q 429.6 244.1 432 258.5 L 438.5 268 L 445.5 272 L 472 272 L 472 312 L 445.5 312 L 436 318.5 Q 429.6 324.1 432 338.5 L 438.5 348 L 445.5 352 L 472 352 L 472 392 L 445.5 392 L 436 398.5 Q 429.6 404.1 432 418.5 L 438.5 428 L 445.5 432 L 472 432 L 472 472 L 392 472 L 392.5 130 Z " /><path fill="rgb(0,0,0)" stroke="rgb(0,0,0)" stroke-width="1" opacity="0" d="M 40 272 L 120 272 L 120 472 L 40 472 L 40 432 L 66.5 432 L 76 425.5 Q 82.4 419.9 80 405.5 L 73.5 396 L 66.5 392 L 40 392 L 40 352 L 66.5 352 L 76 345.5 Q 82.4 339.9 80 325.5 L 73.5 316 L 66.5 312 L 40 312 L 40 272 Z " /><path fill="rgb(0,0,0)" stroke="rgb(0,0,0)" stroke-width="1" opacity="0" d="M 0.5 499 L 6.5 508 L 13 511.5 L 0 512 L 0.5 499 Z " /><path fill="rgb(0,0,0)" stroke="rgb(0,0,0)" stroke-width="1" opacity="0" d="M 511.5 499 L 512 512 L 499 511.5 L 508 505.5 L 511.5 499 Z " /><path fill="rgb(201,139,247)" stroke="rgb(201,139,247)" stroke-width="1" opacity="0.9921568627450981" d="M 370 0 L 376.5 1 L 378.5 0 L 388 6.5 L 392 14.5 L 392 80.5 L 393.5 82 L 508 158.5 L 512 165.5 L 512 498.5 L 505.5 508 L 498.5 512 L 370 512 L 370 0 Z M 393 130 L 392 472 L 472 472 L 472 432 L 446 432 L 439 428 L 432 419 Q 430 404 436 399 L 447 392 L 472 392 L 472 352 L 446 352 L 439 348 L 432 339 Q 430 324 436 319 L 447 312 L 472 312 L 472 272 L 446 272 L 439 268 L 432 259 Q 430 244 436 239 L 447 232 L 472 232 L 472 184 L 393 130 Z " /><path fill="rgb(173,185,250)" stroke="rgb(173,185,250)" stroke-width="1" opacity="0.9921568627450981" d="M 133.5 0 L 240 0 L 240 40 L 160.5 40 L 160 40.5 L 160 472 L 235.5 472 L 236 471.5 L 236 449.5 L 237 447.5 Q 234.5 446 238 444.5 L 239 442.5 L 238.5 441 L 240 441.5 L 240 512 L 115.5 512 L 115 511.5 L 115 472 L 120 471.5 L 120 272 L 115 271.5 L 115 232 L 120 231.5 L 120 14.5 Q 122.4 5.9 129.5 2 L 133.5 0 Z " /><path fill="rgb(173,185,250)" stroke="rgb(173,185,250)" stroke-width="1" opacity="0.9921568627450981" d="M 269.5 76 L 270.5 78 L 269.5 76 Z " /><path fill="rgb(173,185,250)" stroke="rgb(173,185,250)" stroke-width="1" opacity="0.9921568627450981" d="M 241.5 77 L 240 79.5 L 239.5 224 L 236 214.5 L 236 142 L 233 143.5 L 229.5 148 L 221.5 152 L 210.5 152 L 200 145.5 Q 194.2 139.8 196 126.5 L 201 117.5 L 241.5 77 Z " /><path fill="rgb(173,185,250)" stroke="rgb(173,185,250)" stroke-width="1" opacity="0.9921568627450981" d="M 276.5 141 L 282.5 148 L 276.5 141 Z " /><path fill="rgb(173,185,250)" stroke="rgb(173,185,250)" stroke-width="1" opacity="0.9921568627450981" d="M 240.5 225 L 241.5 227 L 240.5 225 Z " /><path fill="rgb(173,185,250)" stroke="rgb(173,185,250)" stroke-width="1" opacity="0.9921568627450981" d="M 271.5 225 L 269.5 228 L 271.5 225 Z " /><path fill="rgb(173,185,250)" stroke="rgb(173,185,250)" stroke-width="1" opacity="0.9921568627450981" d="M 209.5 272 L 240 272 L 240 312 L 210.5 312 L 200 305.5 Q 194.2 299.8 196 286.5 L 201 277 L 209.5 272 Z " /><path fill="rgb(173,185,250)" stroke="rgb(173,185,250)" stroke-width="1" opacity="0.9921568627450981" d="M 209.5 352 L 240 352 L 240 392 L 210.5 392 L 200 385.5 Q 194.2 379.8 196 366.5 L 201 357 L 209.5 352 Z " /><path fill="rgb(173,185,250)" stroke="rgb(173,185,250)" stroke-width="1" opacity="0.9921568627450981" d="M 270.5 437 L 271.5 439 L 270.5 437 Z " /><path fill="rgb(187,162,249)" stroke="rgb(187,162,249)" stroke-width="1" opacity="0.9921568627450981" d="M 240 0 L 369.5 0 L 370 0.5 L 370 512 L 240 512 L 240 441.5 L 239 440.5 L 245.5 434 Q 250.9 430.4 261.5 432 Q 270.1 434.4 274 441.5 L 276 446.5 L 276 472 L 351.5 472 L 352 471.5 L 352 40 L 240 40 L 240 0 Z " /><path fill="rgb(187,162,249)" stroke="rgb(187,162,249)" stroke-width="1" opacity="0.9921568627450981" d="M 250.5 72 Q 259.4 70.6 264.5 73 L 274 80.5 Q 273.3 82.8 275.5 82 L 314 121.5 Q 317.6 126.9 316 137.5 L 311 147 L 301.5 152 L 290.5 152 Q 280.8 149.2 276.5 141 L 276 217.5 Q 273.6 226.1 266.5 230 Q 261.1 233.6 250.5 232 Q 243.3 230.2 240 224.5 L 240 79.5 L 245.5 74 L 250.5 72 Z " /><path fill="rgb(187,162,249)" stroke="rgb(187,162,249)" stroke-width="1" opacity="0.9921568627450981" d="M 234.5 142 L 233.5 144 L 234.5 142 Z " /><path fill="rgb(187,162,249)" stroke="rgb(187,162,249)" stroke-width="1" opacity="0.9921568627450981" d="M 236.5 215 L 237 217.5 L 236 217.5 L 236.5 215 Z " /><path fill="rgb(187,162,249)" stroke="rgb(187,162,249)" stroke-width="1" opacity="0.9921568627450981" d="M 240 272 L 301.5 272 L 311 277 L 316 286.5 L 316 297.5 L 311 307 L 301.5 312 L 240 312 L 240 272 Z " /><path fill="rgb(187,162,249)" stroke="rgb(187,162,249)" stroke-width="1" opacity="0.9921568627450981" d="M 240 352 L 301.5 352 L 311 357 L 316 366.5 L 316 377.5 L 311 387 L 301.5 392 L 240 392 L 240 352 Z " /><path fill="rgb(187,162,249)" stroke="rgb(187,162,249)" stroke-width="1" opacity="0.9921568627450981" d="M 238.5 442 L 238 443.5 L 237.5 445 L 237 443.5 L 238.5 442 Z " /><path fill="rgb(162,204,251)" stroke="rgb(162,204,251)" stroke-width="1" opacity="0.9921568627450981" d="M 126.5 4 L 124.5 7 L 126.5 4 Z " /><path fill="rgb(162,204,251)" stroke="rgb(162,204,251)" stroke-width="1" opacity="0.9921568627450981" d="M 37 232 L 115 232 L 115 272 L 40 272 L 40 312 L 65.5 312 L 75 317.5 Q 82 323 80 337.5 L 75 347 L 65.5 352 L 40 352 L 40 392 L 65.5 392 L 75 397.5 Q 82 403 80 417.5 L 75 427 L 65.5 432 L 40 432 L 40 472 L 115 472 L 115 512 L 37.5 512 L 37 511.5 L 37 232 Z " /><path fill="rgb(162,204,251)" stroke="rgb(162,204,251)" stroke-width="1" opacity="0.9921568627450981" d="M 6.5 236 L 4.5 239 L 6.5 236 Z " /><path fill="rgb(162,204,251)" stroke="rgb(162,204,251)" stroke-width="1" opacity="0.9921568627450981" d="M 5.5 506 L 6.5 508 L 5.5 506 Z " /><path fill="rgb(158,212,252)" stroke="rgb(158,212,252)" stroke-width="1" opacity="0.9921568627450981" d="M 14.5 232 L 36.5 232 L 37 232.5 L 37 512 L 13.5 512 L 4 506 L 0 498.5 L 0 245.5 Q 3 238 9.5 234 L 14.5 232 Z " /></svg>